<svg xmlns="http://www.w3.org/2000/svg" version="1.2" baseProfile="tiny-ps" viewBox="0 0 128 128">
 <g fill="#000000">
  <path d="M0 64 l0 -64 64 0 64 0 0 64 0 64 -64 0 -64 0 0 -64z m53.75 44.95 c0 -0.03 -0.16 -0.40 -0.36 -0.85 -0.61 -1.35 -0.80 -2.25 -0.81 -3.97 0 -1.27 0.05 -1.73 0.26 -2.44 1.05 -3.35 4.57 -6.01 8.99 -6.80 0.41 -0.08 1.81 -0.22 3.11 -0.32 2.92 -0.24 4.85 -0.56 6.84 -1.14 4.07 -1.16 7.64 -3.31 10.79 -6.47 3.81 -3.84 6.30 -8.34 7.68 -13.89 0.89 -3.58 1.15 -5.84 1.23 -10.56 l0.08 -3.81 -1.29 1.23 c-4.06 3.86 -9.61 6.65 -14.94 7.51 l-1.10 0.17 -1.01 1.10 c-0.56 0.61 -2.63 2.80 -4.59 4.86 -1.96 2.06 -3.90 4.10 -4.29 4.54 l-0.73 0.77 3.33 0 3.31 0 0.19 -0.35 c0.56 -1.09 1.96 -1.74 3.49 -1.61 1.98 0.16 3.09 1.40 3.09 3.40 0 1.36 -0.55 2.41 -1.59 3.03 -0.69 0.40 -2.19 0.54 -3.10 0.29 -0.68 -0.19 -1.65 -1.01 -1.90 -1.59 l-0.16 -0.41 -4.61 0 -4.61 0 -1.46 1.59 c-5.14 5.56 -7.14 9.26 -8.07 14.99 -0.21 1.30 -0.22 5.46 -0.01 6.61 0.24 1.29 0.74 2.99 1.15 3.91 l0.38 0.80 0.38 -0.28 c0.20 -0.15 0.38 -0.29 0.38 -0.30z m18.56 -2.01 c9.74 -1.10 18.86 -5.45 25.64 -12.24 4.90 -4.91 8.25 -10.26 10.44 -16.70 3.36 -9.85 3.39 -19.99 0.06 -29.94 -4.59 -13.69 -15.19 -24.27 -28.64 -28.60 -3.44 -1.10 -7.14 -1.75 -10.96 -1.92 -1.60 -0.06 -1.88 -0.05 -2.15 0.14 -0.38 0.24 -0.41 0.51 -0.10 0.68 0.11 0.06 1.20 0.15 2.40 0.19 9.32 0.31 18.17 3.79 25.44 9.96 1.27 1.09 3.91 3.75 5.06 5.13 4.75 5.64 8.20 13.01 9.56 20.44 0.63 3.40 0.73 4.72 0.73 9 0 4.32 -0.16 6.13 -0.86 9.55 -2.65 12.89 -10.66 23.48 -22.05 29.15 -5.75 2.86 -10.99 4.19 -17.20 4.35 -2.29 0.05 -3.06 0.11 -3.22 0.25 -0.24 0.20 -0.09 0.46 0.36 0.64 0.41 0.17 3.76 0.14 5.50 -0.06z m-24.56 -9.44 c0.40 -3.35 1.49 -6.72 3.14 -9.69 1.36 -2.46 3.04 -4.55 7.10 -8.88 l1.76 -1.88 -0.01 -3.75 c-0.01 -4.89 -0.03 -4.91 -0.74 -5.45 -0.34 -0.26 -0.69 -0.68 -0.88 -1.05 -0.26 -0.54 -0.31 -0.79 -0.31 -1.81 0 -0.98 0.05 -1.27 0.28 -1.69 0.61 -1.14 1.59 -1.67 3.05 -1.69 1.08 0 1.58 0.14 2.33 0.64 0.79 0.54 1.16 1.40 1.16 2.65 0 0.55 -0.08 1.23 -0.15 1.51 -0.17 0.59 -1.16 1.65 -1.64 1.76 -0.43 0.11 -0.46 0.38 -0.46 3.55 l0 2.70 1.64 -1.63 c3.34 -3.30 7.18 -7.40 7.70 -8.23 0.94 -1.44 2.89 -5.94 4.22 -9.75 l0.47 -1.35 -0.35 -0.64 c-0.31 -0.56 -0.35 -0.79 -0.36 -1.71 0 -1.61 0.55 -2.63 1.76 -3.21 0.69 -0.34 2.38 -0.40 3.13 -0.11 1.24 0.47 1.89 1.41 2 2.86 0.10 1.29 -0.17 2.14 -0.91 2.88 -0.54 0.54 -1.42 0.95 -2.06 0.95 -0.30 0 -0.31 0.03 -1.19 2.56 -0.82 2.41 -1.39 3.89 -2.10 5.55 -0.25 0.57 -0.44 1.08 -0.40 1.10 0.03 0.04 0.60 -0.09 1.27 -0.28 1.30 -0.34 3.24 -1.23 4.49 -2.05 5.31 -3.49 8.20 -9.84 8.19 -17.96 0 -4.31 -0.65 -7.81 -2.21 -12.05 l-0.45 -1.24 -1.13 1.19 c-1.40 1.49 -3.10 2.90 -4.96 4.16 -3.54 2.40 -6.69 3.94 -12.25 6.01 -8.51 3.15 -12.04 5.15 -15.66 8.84 -3.20 3.26 -5.24 6.75 -6.22 10.66 -0.25 1.01 -0.44 1.50 -0.63 1.66 -0.22 0.19 -0.55 0.21 -2.36 0.21 -1.92 0 -2.11 0.03 -2.42 0.26 l-0.32 0.25 0 2.06 c0 2.71 -0.15 2.55 2.49 2.55 2.81 0 2.56 -0.39 2.64 3.99 0.08 3.92 0.03 3.76 0.96 3.76 0.39 0 0.56 0.06 0.66 0.24 0.08 0.15 0.13 1.24 0.13 2.69 l0 2.44 -0.32 0.25 c-0.31 0.25 -0.50 0.26 -2.69 0.26 l-2.35 0 -0.26 0.34 c-0.26 0.32 -0.26 0.45 -0.22 2.64 0.05 2.89 -0.04 2.78 2.05 2.78 2.08 0 1.92 -0.31 1.92 4.05 0 4.97 0.24 7.57 0.91 10.01 l0.28 1 0.09 -1.88 c0.05 -1.02 0.15 -2.41 0.22 -3.06z m-8.10 -2.21 c0.30 -0.28 0.31 -1.48 0.01 -1.81 -0.30 -0.34 -1.85 -0.32 -2.04 0.01 -0.20 0.40 -0.15 1.52 0.09 1.79 0.28 0.30 1.60 0.32 1.94 0.01z m-4.44 -10.59 c0.21 -0.19 0.24 -1.64 0.04 -1.89 -0.20 -0.24 -1.75 -0.26 -1.98 -0.04 -0.09 0.09 -0.15 0.50 -0.15 0.99 0 0.73 0.04 0.88 0.26 1.04 0.30 0.20 1.58 0.14 1.83 -0.10z m38.63 -3.97 c0.34 -0.32 0.35 -0.44 0.08 -0.75 -0.25 -0.28 -0.51 -0.29 -0.81 -0.01 -0.30 0.26 -0.29 0.47 0.05 0.79 0.34 0.31 0.34 0.31 0.69 -0.03z m-34.84 -4.13 c0.21 -0.24 0.25 -0.44 0.25 -1.56 0 -1.74 -0.05 -1.79 -1.79 -1.79 -1.76 0 -1.76 0 -1.81 1.65 -0.04 1.16 -0.03 1.33 0.22 1.64 0.26 0.32 0.30 0.34 1.56 0.34 1.17 0 1.33 -0.03 1.56 -0.28z m-14.95 -2.05 c0.13 -0.13 0.20 -0.41 0.20 -0.80 0 -0.80 -0.21 -1 -1.05 -1 -0.35 0 -0.71 0.06 -0.80 0.15 -0.09 0.09 -0.15 0.46 -0.15 0.85 0 0.39 0.06 0.76 0.15 0.85 0.22 0.22 1.41 0.19 1.65 -0.05z m9.48 -5.64 c0.19 -0.17 0.22 -0.40 0.22 -1.64 0 -1.92 0.03 -1.90 -1.84 -1.90 -1.90 0 -1.91 0.01 -1.91 1.85 0 1.91 -0.01 1.90 1.84 1.90 1.17 0 1.50 -0.04 1.69 -0.21z m27.90 -3.36 c0.11 -0.05 0.26 -0.19 0.34 -0.32 0.11 -0.20 0.08 -0.31 -0.14 -0.55 -0.26 -0.28 -0.30 -0.28 -0.64 -0.10 -0.41 0.20 -0.46 0.49 -0.15 0.82 0.22 0.25 0.29 0.26 0.59 0.15z m-43.70 -4.38 c0.22 -0.16 0.28 -0.31 0.28 -0.91 0 -1.01 -0.22 -1.20 -1.27 -1.09 -0.44 0.05 -0.82 0.16 -0.88 0.24 -0.05 0.09 -0.10 0.47 -0.10 0.86 0 0.86 0.25 1.10 1.13 1.10 0.31 0 0.70 -0.09 0.85 -0.20z m12.52 -3.30 c0.19 -0.19 0.25 -0.41 0.25 -0.94 0 -0.94 -0.25 -1.19 -1.21 -1.19 -0.98 0 -1.16 0.19 -1.16 1.16 0 1.02 0.19 1.21 1.15 1.21 0.56 0 0.79 -0.06 0.98 -0.25z m9.27 -1.71 c0.20 -0.17 0.22 -0.41 0.22 -1.91 0 -2.26 0.09 -2.17 -2.19 -2.10 -2.21 0.06 -2.13 -0.03 -2.13 2.09 0 2.20 -0.06 2.14 2.16 2.14 1.40 0 1.74 -0.04 1.92 -0.21z m40.03 -4.78 c0.26 -0.29 0.17 -0.70 -0.17 -0.89 -0.16 -0.09 -0.30 -0.05 -0.55 0.14 -0.38 0.30 -0.40 0.45 -0.11 0.76 0.26 0.29 0.56 0.29 0.84 -0.01z m-46.22 -3.08 c0.10 -0.14 0.17 -0.55 0.17 -0.95 0 -0.90 -0.24 -1.11 -1.21 -1.11 -0.91 0 -1.16 0.26 -1.16 1.19 0 0.99 0.28 1.24 1.27 1.16 0.55 -0.04 0.80 -0.13 0.93 -0.29z m-11.60 -2.09 c0.09 -0.09 0.15 -0.50 0.15 -1 0 -0.73 -0.04 -0.86 -0.26 -0.99 -0.30 -0.15 -1.58 -0.05 -1.83 0.16 -0.24 0.20 -0.21 1.54 0.04 1.77 0.24 0.24 1.67 0.28 1.90 0.05z m21.80 -2.06 c0.19 -0.17 0.22 -0.40 0.22 -1.56 0 -0.75 -0.06 -1.48 -0.13 -1.61 -0.13 -0.21 -0.28 -0.24 -1.59 -0.24 -1.94 0 -1.91 -0.01 -1.91 1.77 0 1.83 0.03 1.85 1.84 1.85 1.06 0 1.38 -0.04 1.56 -0.21z m-10.20 -7.85 c0.10 -0.13 0.17 -0.54 0.17 -0.90 0 -0.91 -0.26 -1.16 -1.19 -1.16 -0.52 0 -0.75 0.06 -0.94 0.25 -0.36 0.36 -0.35 1.52 0.01 1.89 0.22 0.22 0.38 0.26 1.01 0.21 0.55 -0.04 0.80 -0.13 0.93 -0.29z m17.99 -0.25 c0.30 -0.29 0.31 -0.36 0.31 -2.04 0 -1.58 -0.03 -1.77 -0.26 -2.08 l-0.25 -0.32 -1.86 0 -1.86 0 -0.25 0.32 c-0.24 0.30 -0.26 0.50 -0.26 2.05 0 1.55 0.03 1.75 0.26 2.05 0.25 0.32 0.26 0.32 2.06 0.32 1.76 0 1.83 -0.01 2.11 -0.31z"/>
 </g>
 <g fill="#35c998">
  <path d="M52.34 109.28 c-0.49 -1.06 -0.99 -2.72 -1.24 -4.09 -0.21 -1.16 -0.21 -5.91 0 -7.28 0.90 -5.71 2.92 -9.49 8.09 -15.07 l1.46 -1.59 4.99 0 4.99 0 0.16 0.41 c0.25 0.57 1.23 1.40 1.90 1.59 2.21 0.61 4.35 -1.40 3.81 -3.61 -0.41 -1.73 -2.10 -2.70 -3.80 -2.21 -0.76 0.22 -1.59 0.86 -1.90 1.48 l-0.19 0.35 -3.99 0 c-2.20 0 -4 -0.04 -4 -0.08 0 -0.05 0.44 -0.54 0.98 -1.10 3.97 -4.18 8.38 -8.82 9.23 -9.75 l1.01 -1.10 1.10 -0.17 c5.43 -0.88 10.95 -3.69 15.11 -7.69 0.79 -0.75 1.51 -1.36 1.64 -1.36 0.20 0 0.21 0.28 0.15 4.35 -0.08 5.28 -0.30 7.35 -1.23 11.09 -1.38 5.55 -3.86 10.05 -7.68 13.89 -3.15 3.16 -6.71 5.31 -10.79 6.47 -1.99 0.57 -3.91 0.90 -6.84 1.14 -2.70 0.22 -3.41 0.32 -4.89 0.76 -3.44 0.99 -6.29 3.50 -7.19 6.30 -0.20 0.60 -0.26 1.15 -0.26 2.06 -0.01 1.49 0.21 2.42 0.93 3.97 0.29 0.60 0.49 1.11 0.46 1.13 -0.03 0.03 -0.28 0.21 -0.55 0.43 -1.01 0.76 -0.98 0.77 -1.48 -0.31z"/>
  <path d="M66.44 107.38 c-0.59 -0.22 -0.79 -0.95 -0.39 -1.35 0.17 -0.19 0.65 -0.22 3.24 -0.29 4.20 -0.11 7.25 -0.61 11.01 -1.83 14.64 -4.70 25.11 -16.44 28.25 -31.67 0.69 -3.33 0.86 -5.25 0.86 -9.18 0 -3.88 -0.11 -5.31 -0.73 -8.63 -1.36 -7.43 -4.81 -14.80 -9.56 -20.44 -1.15 -1.38 -3.79 -4.04 -5.06 -5.13 -7.28 -6.19 -16.11 -9.65 -25.49 -9.96 -1.95 -0.06 -2.26 -0.10 -2.47 -0.31 -0.34 -0.34 -0.29 -0.90 0.13 -1.24 0.32 -0.26 0.40 -0.26 2.59 -0.20 13.55 0.44 25.85 7.19 34.05 18.69 3.65 5.11 6.38 11.61 7.63 18.15 1.52 8.06 0.95 16.51 -1.66 24.21 -2.24 6.59 -5.55 11.90 -10.50 16.86 -6.78 6.79 -15.90 11.14 -25.64 12.24 -1.73 0.20 -5.82 0.24 -6.25 0.06z"/>
  <path d="M47.51 103.94 c-1.24 -2.95 -1.64 -5.93 -1.64 -12.14 0 -4.36 0.15 -4.05 -1.92 -4.05 -2.11 0 -2 0.17 -2.05 -3.15 -0.04 -2.58 -0.04 -2.69 0.22 -3.01 l0.26 -0.34 2.35 0 c2.19 0 2.38 -0.01 2.69 -0.26 l0.32 -0.25 0 -2.06 c0 -1.19 -0.05 -2.17 -0.13 -2.31 -0.10 -0.17 -0.28 -0.24 -0.66 -0.24 -0.94 0 -0.89 0.16 -0.96 -3.76 -0.08 -4.38 0.17 -3.99 -2.64 -3.99 -2.67 0 -2.49 0.22 -2.49 -2.92 l0 -2.44 0.32 -0.25 c0.31 -0.24 0.50 -0.26 2.42 -0.26 1.81 0 2.14 -0.03 2.36 -0.21 0.19 -0.16 0.38 -0.65 0.63 -1.66 1.40 -5.55 5.19 -10.65 10.64 -14.31 2.46 -1.65 5.56 -3.09 11.25 -5.19 8.36 -3.11 13.38 -6.10 17.42 -10.40 0.89 -0.95 1.36 -1.36 1.45 -1.27 0.17 0.17 1.04 2.49 1.54 4.18 0.95 3.14 1.35 6.05 1.36 9.81 0 3.79 -0.47 6.75 -1.54 9.65 -2.19 6 -6.84 10.01 -12.90 11.15 -0.32 0.05 -0.63 0.06 -0.65 0.01 -0.04 -0.06 0.22 -0.76 0.57 -1.59 0.91 -2.11 1.41 -3.41 2.29 -5.97 0.88 -2.54 0.89 -2.56 1.19 -2.56 0.64 0 1.52 -0.41 2.06 -0.95 1.99 -1.99 0.45 -5.39 -2.33 -5.15 -2.36 0.20 -3.63 2.64 -2.42 4.64 l0.44 0.71 -0.79 2.16 c-1.66 4.54 -3.16 7.97 -4.11 9.43 -0.30 0.47 -1.27 1.61 -2.15 2.54 -2.71 2.85 -7.70 7.88 -7.82 7.88 -0.08 0 -0.11 -1.49 -0.11 -3.67 l0.01 -3.69 0.56 -0.26 c2.44 -1.19 2.16 -4.72 -0.44 -5.60 -2.30 -0.79 -4.60 1.51 -3.84 3.83 0.26 0.79 0.59 1.21 1.27 1.64 l0.52 0.34 0.01 4.74 0.03 4.75 -1.77 1.88 c-2.59 2.76 -4.39 4.82 -5.43 6.24 -2.51 3.45 -4.14 7.51 -4.75 11.84 -0.25 1.79 -0.36 4.91 -0.22 6.34 0.06 0.63 0.08 1.15 0.03 1.15 -0.04 0 -0.25 -0.43 -0.47 -0.94z"/>
  <path d="M37.34 95.65 c-0.16 -0.17 -0.21 -0.47 -0.21 -1.26 0 -1.50 0.01 -1.51 1.49 -1.51 1.58 0 1.64 0.05 1.64 1.52 0 1.41 -0.08 1.48 -1.59 1.48 -0.93 0 -1.16 -0.04 -1.33 -0.22z"/>
  <path d="M33.04 85.19 c-0.26 -0.19 -0.29 -0.30 -0.29 -1.42 0 -0.77 0.05 -1.26 0.15 -1.36 0.10 -0.10 0.59 -0.15 1.36 -0.15 0.98 0 1.24 0.04 1.38 0.21 0.25 0.30 0.24 2.34 -0.01 2.59 -0.11 0.11 -0.59 0.21 -1.25 0.26 -0.88 0.06 -1.11 0.04 -1.34 -0.13z"/>
  <path d="M72.86 81.21 c-0.52 -0.40 -0.59 -1.13 -0.15 -1.61 0.30 -0.32 1.30 -0.30 1.60 0.03 0.34 0.38 0.30 1.05 -0.06 1.44 -0.32 0.35 -1.04 0.43 -1.39 0.15z"/>
  <path d="M35.50 76.91 c-0.25 -0.32 -0.26 -0.46 -0.22 -2.01 0.04 -1.49 0.06 -1.69 0.28 -1.85 0.19 -0.13 0.68 -0.17 1.91 -0.17 2.22 0 2.16 -0.06 2.16 2.16 0 2.26 0.05 2.21 -2.19 2.21 -1.67 0 -1.67 0 -1.94 -0.34z"/>
  <path d="M22.02 74.97 c-0.20 -0.20 -0.20 -2.25 0 -2.45 0.09 -0.09 0.55 -0.15 1.17 -0.15 1.35 0 1.42 0.08 1.42 1.38 0 1.30 -0.08 1.38 -1.42 1.38 -0.63 0 -1.09 -0.06 -1.17 -0.15z"/>
  <path d="M29.83 69.22 c-0.16 -0.22 -0.20 -0.65 -0.20 -2 0 -2.31 -0.09 -2.22 2.29 -2.22 2.34 0 2.21 -0.13 2.21 2.28 0 2.35 0.13 2.22 -2.29 2.22 -1.74 0 -1.84 -0.01 -2.01 -0.28z"/>
  <path d="M60.80 66 c-0.52 -0.21 -0.81 -0.89 -0.60 -1.44 0.11 -0.26 0.70 -0.56 1.15 -0.56 0.47 0 0.90 0.46 0.90 0.99 0 0.56 -0.17 0.84 -0.64 1 -0.46 0.16 -0.46 0.16 -0.81 0.01z"/>
  <path d="M15.65 61.55 c-0.25 -0.17 -0.28 -0.29 -0.28 -1.27 0 -0.60 0.05 -1.16 0.11 -1.25 0.06 -0.10 0.51 -0.19 1.25 -0.24 1.55 -0.10 1.64 -0.03 1.64 1.48 0 1.38 -0.11 1.49 -1.50 1.49 -0.65 0 -1.02 -0.06 -1.23 -0.20z"/>
  <path d="M27.96 58.28 c-0.16 -0.17 -0.21 -0.49 -0.21 -1.36 0 -1.48 0.06 -1.54 1.54 -1.54 1.48 0 1.59 0.11 1.59 1.56 0 1.45 -0.11 1.56 -1.60 1.56 -0.91 0 -1.15 -0.04 -1.31 -0.22z"/>
  <path d="M35.30 56.49 c-0.21 -0.24 -0.24 -0.47 -0.24 -2.25 0 -1.74 0.03 -2 0.22 -2.20 0.19 -0.20 0.51 -0.22 2.29 -0.28 2.74 -0.05 2.55 -0.24 2.55 2.49 0 1.86 -0.03 2.11 -0.22 2.29 -0.20 0.17 -0.55 0.21 -2.30 0.21 -1.94 0 -2.08 -0.01 -2.30 -0.26z"/>
  <path d="M78.45 51.85 c-0.19 -0.16 -0.36 -0.46 -0.40 -0.69 -0.06 -0.34 -0.01 -0.46 0.30 -0.79 0.57 -0.57 1.39 -0.51 1.71 0.14 0.28 0.52 0.22 0.84 -0.17 1.25 -0.45 0.45 -0.99 0.47 -1.44 0.09z"/>
  <path d="M31.01 48.76 c-0.22 -0.22 -0.26 -0.41 -0.26 -1.33 0 -1.44 0.13 -1.56 1.54 -1.56 1.49 0 1.59 0.09 1.59 1.49 0 1.50 -0.05 1.56 -1.48 1.61 -1.01 0.05 -1.15 0.03 -1.39 -0.21z"/>
  <path d="M19.45 46.55 c-0.28 -0.26 -0.29 -2.33 -0.03 -2.54 0.26 -0.21 2.21 -0.32 2.55 -0.15 0.25 0.14 0.28 0.24 0.28 1.36 0 0.79 -0.05 1.27 -0.15 1.38 -0.24 0.24 -2.41 0.20 -2.65 -0.05z"/>
  <path d="M40 44.50 c-0.22 -0.22 -0.25 -0.41 -0.25 -1.98 0 -2.26 -0.13 -2.15 2.29 -2.15 1.67 0 1.84 0.03 1.96 0.24 0.06 0.14 0.13 1.02 0.13 1.99 0 2.25 0.10 2.15 -2.16 2.15 -1.55 0 -1.74 -0.03 -1.96 -0.25z"/>
  <path d="M31.01 36.76 c-0.22 -0.22 -0.26 -0.41 -0.26 -1.33 0 -0.90 0.04 -1.10 0.25 -1.31 0.21 -0.21 0.41 -0.25 1.31 -0.25 1.44 0 1.56 0.13 1.56 1.54 0 1.45 -0.06 1.51 -1.48 1.56 -1.01 0.05 -1.15 0.03 -1.39 -0.21z"/>
  <path d="M46.76 36.42 c-0.24 -0.31 -0.26 -0.50 -0.26 -2.42 0 -1.92 0.03 -2.11 0.26 -2.42 l0.25 -0.32 2.24 0 2.24 0 0.25 0.32 c0.24 0.31 0.26 0.50 0.26 2.45 0 2.08 0 2.11 -0.31 2.41 -0.30 0.31 -0.34 0.31 -2.49 0.31 l-2.19 0 -0.25 -0.32z"/>
 </g>
</svg>